<svg width="355" height="39" viewBox="0 0 355 39" fill="none" xmlns="http://www.w3.org/2000/svg">
  <path
    d="M33.085 0.847595V30.9996H24.5453V16.367L18.289 23.2399H15.7316L9.47525 16.367V30.9996H0.935547V0.847595H3.94956L17.0103 13.7065L30.071 0.847595H33.085Z"
    fill="#FA7659" />
  <path
    d="M70.3291 0.625916C72.1253 0.625916 73.8911 0.847622 75.6265 1.29103C77.3923 1.70489 78.8079 2.26654 79.8735 2.976V11.0018C78.5644 10.2627 77.2705 9.62718 75.9918 9.09509C74.7131 8.53343 73.2061 8.25261 71.4708 8.25261C70.4661 8.25261 69.5984 8.40041 68.8678 8.69602C68.1371 8.99163 67.7718 9.47938 67.7718 10.1593C67.7718 10.8983 68.2132 11.46 69.0961 11.8442C69.979 12.199 71.0598 12.6128 72.3385 13.0858L75.6265 14.283C77.8489 15.1107 79.4168 16.234 80.3302 17.6529C81.2739 19.0719 81.7458 20.4908 81.7458 21.9097C81.7458 23.8016 81.1826 25.4866 80.0562 26.9646C78.9297 28.4131 77.4075 29.566 75.4895 30.4232C73.5715 31.2509 71.4251 31.6648 69.0504 31.6648C67.2238 31.6648 65.4123 31.3544 63.6161 30.7336C61.8198 30.1128 60.252 29.3442 58.9124 28.4279V20.4021C60.3737 21.4663 61.9416 22.3383 63.6161 23.0182C65.321 23.6981 67.0259 24.0381 68.7308 24.0381C69.7963 24.0381 70.6488 23.9198 71.2881 23.6833C71.9579 23.4173 72.2928 22.9739 72.2928 22.3531C72.2928 21.9097 72.0492 21.5254 71.5621 21.2002C71.075 20.8751 70.4204 20.5942 69.5984 20.3578L65.2601 19.0275C63.5552 18.4954 62.2309 17.7712 61.2871 16.8548C60.3433 15.9384 59.6887 14.9186 59.3234 13.7953C58.9581 12.6424 58.7754 11.4747 58.7754 10.2923C58.7754 8.19348 59.3234 6.43462 60.4194 5.0157C61.5154 3.56722 62.9463 2.47347 64.7121 1.73445C66.4779 0.995426 68.3502 0.625916 70.3291 0.625916Z"
    fill="#5BB5A7" />
  <path
    d="M48.1217 0.760498C49.7021 0.760498 51.236 1.01625 52.7234 1.52776C54.2419 2.03927 55.6053 2.79148 56.8139 3.78441C58.0224 4.77734 58.9831 5.98088 59.6958 7.39505C60.4395 8.80922 60.8114 10.4039 60.8114 12.1792C60.8114 14.496 60.2536 16.4969 59.138 18.1818C58.0224 19.8367 56.566 21.1004 54.7687 21.973C52.9713 22.8456 51.0656 23.2819 49.0513 23.2819C47.8738 23.2819 46.8202 23.1766 45.8905 22.9659C44.9609 22.7252 44.1552 22.4243 43.4735 22.0633V30.9996H34.7812V0.760498H48.1217ZM43.4735 8.65878V15.6544C44.0003 15.8349 44.558 15.9854 45.1468 16.1057C45.7666 16.2261 46.4173 16.2863 47.0991 16.2863C48.4626 16.2863 49.5936 15.8801 50.4923 15.0677C51.4219 14.2252 51.8868 13.2623 51.8868 12.1792C51.8868 10.9455 51.4219 10.0579 50.4923 9.5163C49.5936 8.94462 48.4626 8.65878 47.0991 8.65878H43.4735Z"
    fill="#000091" />
  <path
    d="M120.688 26.9996H118.224L115.184 24.1516C113.36 26.3276 110.96 27.6076 107.792 27.6076C103.472 27.6076 100.336 24.8556 100.336 20.8876C100.336 17.6236 102.416 15.4476 104.976 14.4876C103.44 12.9516 102.416 11.5116 102.416 9.17563C102.416 6.23163 104.72 3.95963 108.048 3.95963C111.312 3.95963 113.648 6.16763 113.648 9.20763C113.648 12.3116 111.408 14.1036 108.304 15.0636L114.864 21.3996C115.952 19.6396 116.784 17.4636 117.424 14.9996H119.44C118.608 17.9756 117.584 20.6316 116.24 22.7116L120.688 26.9996ZM104.4 9.30363C104.4 11.4796 105.488 12.4396 107.024 13.8476C110.128 13.0476 111.792 11.6396 111.792 9.23963C111.792 7.35163 110.352 5.71963 108.112 5.71963C105.712 5.71963 104.4 7.28763 104.4 9.30363ZM102.352 20.8876C102.352 23.8636 104.88 25.8476 107.888 25.8476C110.352 25.8476 112.304 24.7596 113.84 22.8716L106.352 15.8316L106.256 15.7356C104.176 16.4716 102.352 18.1356 102.352 20.8876Z"
    fill="#666666" />
  <path
    d="M301.85 10.6115C300.795 10.1156 300.049 9.54651 300.049 8.61115C300.049 7.6758 300.635 6.96584 301.85 6.83624C301.972 6.82497 302.088 6.80807 302.221 6.80807C303.657 6.80807 304.867 7.78286 305.823 8.98304L308.911 6.20516C307.585 4.36826 305.011 2.9765 302.182 2.9765C302.066 2.9765 301.961 2.98777 301.85 2.98777C298.165 3.12864 295.563 5.58535 295.563 8.82527C295.563 13.0963 299.231 14.1106 301.85 15.1643C303.298 15.7503 304.431 16.3475 304.431 17.5252C304.431 18.7028 303.657 19.548 302.149 19.548C302.049 19.548 301.95 19.5311 301.85 19.5255C300.232 19.4128 298.955 18.4154 297.883 17.035L294.795 19.8861C296.491 21.9427 298.74 23.2556 301.856 23.357C301.983 23.357 302.099 23.3739 302.226 23.3739C305.718 23.3739 308.845 21.199 308.922 17.2209C308.922 12.5836 304.447 11.806 301.856 10.5946L301.85 10.6115Z"
    fill="#000091" />
  <path
    d="M171.293 27.8197H174.702V28.5578H172.144V30.6314H174.337V31.3639H172.144V33.5558H174.702V34.2939H171.293V27.8141V27.8197Z"
    fill="#000091" />
  <path
    d="M176.066 29.634H176.84V30.1637C177.21 29.7467 177.685 29.4537 178.365 29.4537C179.392 29.4537 180.155 30.1581 180.155 31.4822V34.3052H179.381V31.5104C179.381 30.6765 178.917 30.1975 178.21 30.1975C177.547 30.1975 177.133 30.5863 176.84 31.0765V34.3052H176.066V29.6397V29.634Z"
    fill="#000091" />
  <path
    d="M181.872 30.344H181.01V29.6341H181.872V28.4677H182.651V29.6341H184.236V30.344H182.651V32.7331C182.651 33.4656 183.015 33.6685 183.568 33.6685C183.866 33.6685 184.076 33.629 184.247 33.5558V34.2601C184.032 34.3503 183.783 34.3897 183.457 34.3897C182.441 34.3897 181.872 33.8713 181.872 32.7331V30.344Z"
    fill="#000091" />
  <path
    d="M185.332 29.634H186.106V30.2144C186.443 29.8087 186.857 29.5382 187.437 29.5382C187.581 29.5382 187.719 29.5551 187.829 29.5946V30.3609C187.691 30.3215 187.559 30.3046 187.376 30.3046C186.78 30.3046 186.387 30.6201 186.106 31.0934V34.2939H185.332V29.6284V29.634Z"
    fill="#000091" />
  <path
    d="M190.675 34.4799C189.134 34.4799 188.178 33.3248 188.178 31.9612C188.178 30.5976 189.067 29.4425 190.482 29.4425C191.725 29.4425 192.531 30.3046 192.531 31.4709C192.531 31.6569 192.504 31.8428 192.476 31.9724H188.962C188.99 33.0937 189.686 33.7699 190.67 33.7699C191.261 33.7699 191.758 33.4938 192.056 33.0768L192.625 33.5276C192.2 34.108 191.52 34.4799 190.664 34.4799H190.675ZM189.023 31.3695H191.763C191.736 30.6821 191.244 30.113 190.482 30.113C189.719 30.113 189.183 30.5638 189.023 31.3695Z"
    fill="#000091" />
  <path
    d="M193.344 33.5839L196.04 30.344H193.41V29.634H196.985V30.344L194.283 33.5839H197.051V34.2939H193.349V33.5839H193.344Z"
    fill="#000091" />
  <path
    d="M202.52 29.4481C203.2 29.4481 203.736 29.7185 204.144 30.1862V27.352H204.918V34.2939H204.144V33.736C203.736 34.2094 203.2 34.4742 202.52 34.4742C201.089 34.4742 200.172 33.3191 200.172 31.9555C200.172 30.5919 201.089 29.4368 202.52 29.4368V29.4481ZM202.608 33.7417C203.244 33.7417 203.807 33.4261 204.144 32.8796V31.0483C203.791 30.4905 203.238 30.1862 202.608 30.1862C201.636 30.1862 200.984 30.9751 200.984 31.9611C200.984 32.9472 201.636 33.736 202.608 33.736V33.7417Z"
    fill="#000091" />
  <path
    d="M206.189 33.1219C206.189 32.4176 206.714 31.9161 207.686 31.7527L209.228 31.4935V31.1724C209.228 30.5244 208.775 30.1525 208.123 30.1525C207.598 30.1525 207.173 30.4004 206.891 30.8005L206.311 30.3441C206.708 29.7919 207.355 29.4482 208.151 29.4482C209.311 29.4482 210.001 30.1412 210.001 31.1667V34.294H209.228V33.7136C208.885 34.1644 208.305 34.4236 207.692 34.4236C206.791 34.4236 206.184 33.9164 206.184 33.1163L206.189 33.1219ZM207.825 33.7812C208.432 33.7812 208.93 33.4826 209.233 32.9867V32.0683L207.88 32.2993C207.255 32.412 206.974 32.6993 206.974 33.0938C206.974 33.4882 207.289 33.7812 207.825 33.7812Z"
    fill="#000091" />
  <path
    d="M211.459 29.6341H212.232V30.1637C212.603 29.7468 213.078 29.4538 213.757 29.4538C214.785 29.4538 215.547 30.1581 215.547 31.4822V34.3052H214.774V31.5104C214.774 30.6765 214.31 30.1975 213.603 30.1975C212.94 30.1975 212.525 30.5863 212.232 31.0765V34.3052H211.459V29.6397V29.6341Z"
    fill="#000091" />
  <path
    d="M217.057 33.1839C217.372 33.5896 217.753 33.8206 218.217 33.8206C218.726 33.8206 219.018 33.505 219.018 33.0993C219.018 32.0513 216.731 32.4232 216.731 30.7779C216.731 30.0454 217.339 29.4481 218.217 29.4481C218.869 29.4481 219.433 29.7636 219.753 30.2144L219.217 30.6764C218.974 30.3271 218.626 30.1017 218.228 30.1017C217.737 30.1017 217.477 30.4003 217.477 30.761C217.477 31.809 219.77 31.4709 219.77 33.0655C219.759 33.9333 219.079 34.4798 218.228 34.4798C217.505 34.4798 216.93 34.1812 216.516 33.6572L217.063 33.1839H217.057Z"
    fill="#000091" />
  <path d="M223.289 27.3576H224.063V34.2995H223.289V27.3576Z" fill="#000091" />
  <path d="M226.875 27.8197L226.101 30.2989H225.223L226.156 27.8197H226.875Z" fill="#000091" />
  <path
    d="M229.632 34.4799C228.091 34.4799 227.135 33.3248 227.135 31.9612C227.135 30.5976 228.024 29.4425 229.439 29.4425C230.682 29.4425 231.488 30.3046 231.488 31.4709C231.488 31.6569 231.461 31.8428 231.433 31.9724H227.919C227.947 33.0937 228.643 33.7699 229.627 33.7699C230.218 33.7699 230.715 33.4938 231.013 33.0768L231.582 33.5276C231.157 34.108 230.477 34.4799 229.621 34.4799H229.632ZM227.98 31.3695H230.72C230.693 30.6821 230.201 30.113 229.439 30.113C228.676 30.113 228.14 30.5638 227.98 31.3695Z"
    fill="#000091" />
  <path
    d="M232.703 29.634H233.477V30.1637C233.847 29.7467 234.322 29.4537 235.002 29.4537C236.029 29.4537 236.792 30.1581 236.792 31.4822V34.3052H236.018V31.5104C236.018 30.6765 235.554 30.1975 234.847 30.1975C234.184 30.1975 233.769 30.5863 233.477 31.0765V34.3052H232.703V29.6397V29.634Z"
    fill="#000091" />
  <path
    d="M238.305 33.1839C238.62 33.5896 239.001 33.8206 239.465 33.8206C239.974 33.8206 240.266 33.5051 240.266 33.0994C240.266 32.0513 237.979 32.4232 237.979 30.7779C237.979 30.0454 238.587 29.4481 239.465 29.4481C240.117 29.4481 240.681 29.7637 241.001 30.2144L240.465 30.6765C240.222 30.3271 239.874 30.1017 239.476 30.1017C238.985 30.1017 238.725 30.4004 238.725 30.761C238.725 31.809 241.018 31.471 241.018 33.0656C241.007 33.9333 240.327 34.4799 239.476 34.4799C238.753 34.4799 238.178 34.1812 237.764 33.6572L238.311 33.1839H238.305Z"
    fill="#000091" />
  <path
    d="M244.23 34.4799C242.688 34.4799 241.732 33.3248 241.732 31.9612C241.732 30.5976 242.622 29.4425 244.036 29.4425C245.279 29.4425 246.086 30.3046 246.086 31.4709C246.086 31.6569 246.058 31.8428 246.031 31.9724H242.517C242.545 33.0937 243.241 33.7699 244.224 33.7699C244.815 33.7699 245.313 33.4938 245.611 33.0768L246.18 33.5276C245.755 34.108 245.075 34.4799 244.219 34.4799H244.23ZM242.578 31.3695H245.318C245.291 30.6821 244.799 30.113 244.036 30.113C243.274 30.113 242.738 30.5638 242.578 31.3695Z"
    fill="#000091" />
  <path
    d="M247.145 27.8648C247.145 27.5661 247.388 27.3182 247.692 27.3182C247.995 27.3182 248.227 27.5661 248.227 27.8648C248.227 28.1634 247.99 28.417 247.692 28.417C247.393 28.417 247.145 28.169 247.145 27.8648ZM247.299 29.634H248.073V34.2995H247.299V29.634Z"
    fill="#000091" />
  <path
    d="M249.769 33.9615C249.559 33.7924 249.454 33.5445 249.454 33.2966C249.454 32.9247 249.642 32.6204 250.001 32.3894C249.603 32.0851 249.366 31.6118 249.366 31.0934C249.366 30.1975 250.056 29.4368 251.145 29.4368C251.482 29.4368 251.78 29.5101 252.023 29.6284H253.719V30.3158H252.73C252.858 30.5469 252.918 30.8173 252.918 31.0934C252.918 31.9837 252.239 32.7387 251.139 32.7387C250.913 32.7387 250.697 32.6993 250.504 32.6486C250.316 32.7894 250.206 32.9529 250.206 33.1275C250.206 33.3247 250.305 33.46 250.587 33.46H251.891C253.095 33.46 253.659 34.0629 253.659 34.8968C253.659 35.8772 252.697 36.6097 251.327 36.6097C249.957 36.6097 249.084 36.0745 249.084 35.1391C249.084 34.6658 249.311 34.2883 249.764 33.9615H249.769ZM251.322 35.9505C252.283 35.9505 252.891 35.5617 252.891 34.9532C252.891 34.508 252.648 34.1587 251.83 34.1587H250.421C250.029 34.401 249.841 34.6771 249.841 35.0489C249.841 35.6124 250.41 35.9561 251.322 35.9561V35.9505ZM252.195 31.0934C252.195 30.5187 251.813 30.0566 251.15 30.0566C250.487 30.0566 250.095 30.5187 250.095 31.0934C250.095 31.6682 250.465 32.1189 251.15 32.1189C251.835 32.1189 252.195 31.6569 252.195 31.0934Z"
    fill="#000091" />
  <path
    d="M254.57 29.6341H255.344V30.1637C255.714 29.7468 256.189 29.4538 256.869 29.4538C257.896 29.4538 258.659 30.1581 258.659 31.4822V34.3052H257.885V31.5104C257.885 30.6765 257.421 30.1975 256.714 30.1975C256.051 30.1975 255.637 30.5863 255.344 31.0765V34.3052H254.57V29.6397V29.6341Z"
    fill="#000091" />
  <path
    d="M262.218 34.4799C260.677 34.4799 259.721 33.3248 259.721 31.9612C259.721 30.5976 260.61 29.4425 262.025 29.4425C263.268 29.4425 264.074 30.3046 264.074 31.4709C264.074 31.6569 264.047 31.8428 264.019 31.9724H260.505C260.533 33.0937 261.229 33.7699 262.212 33.7699C262.804 33.7699 263.301 33.4938 263.599 33.0768L264.168 33.5276C263.743 34.108 263.063 34.4799 262.207 34.4799H262.218ZM260.566 31.3695H263.306C263.279 30.6821 262.787 30.113 262.025 30.113C261.262 30.113 260.726 30.5638 260.566 31.3695Z"
    fill="#000091" />
  <path
    d="M265.295 29.6341H266.068V30.1412C266.411 29.7355 266.869 29.4482 267.499 29.4482C268.129 29.4482 268.704 29.7524 268.985 30.3441C269.35 29.8369 269.831 29.4482 270.621 29.4482C271.599 29.4482 272.317 30.113 272.317 31.3808V34.294H271.543V31.409C271.543 30.6314 271.118 30.1863 270.466 30.1863C269.886 30.1863 269.477 30.5187 269.179 31.0653C269.19 31.1667 269.195 31.2681 269.195 31.3808V34.294H268.422V31.409C268.422 30.6314 268.002 30.1863 267.344 30.1863C266.72 30.1863 266.328 30.5864 266.063 31.0653V34.294H265.289V29.6285L265.295 29.6341Z"
    fill="#000091" />
  <path
    d="M275.882 34.4799C274.341 34.4799 273.385 33.3248 273.385 31.9612C273.385 30.5976 274.274 29.4425 275.689 29.4425C276.932 29.4425 277.738 30.3046 277.738 31.4709C277.738 31.6569 277.711 31.8428 277.683 31.9724H274.169C274.197 33.0937 274.893 33.7699 275.877 33.7699C276.468 33.7699 276.965 33.4938 277.263 33.0768L277.832 33.5276C277.407 34.108 276.727 34.4799 275.871 34.4799H275.882ZM274.23 31.3695H276.97C276.943 30.6821 276.451 30.113 275.689 30.113C274.926 30.113 274.39 30.5638 274.23 31.3695Z"
    fill="#000091" />
  <path
    d="M278.955 29.634H279.729V30.1637C280.099 29.7467 280.574 29.4537 281.253 29.4537C282.281 29.4537 283.044 30.1581 283.044 31.4822V34.3052H282.27V31.5104C282.27 30.6765 281.806 30.1975 281.099 30.1975C280.436 30.1975 280.021 30.5863 279.729 31.0765V34.3052H278.955V29.6397V29.634Z"
    fill="#000091" />
  <path
    d="M284.76 30.344H283.898V29.6341H284.76V28.4677H285.539V29.6341H287.125V30.344H285.539V32.7331C285.539 33.4656 285.904 33.6685 286.457 33.6685C286.755 33.6685 286.965 33.629 287.136 33.5558V34.2601C286.921 34.3503 286.672 34.3897 286.346 34.3897C285.329 34.3897 284.76 33.8713 284.76 32.7331V30.344Z"
    fill="#000091" />
  <path
    d="M290.633 33.1839C290.948 33.5896 291.329 33.8206 291.794 33.8206C292.302 33.8206 292.595 33.5051 292.595 33.0994C292.595 32.0513 290.307 32.4232 290.307 30.7779C290.307 30.0454 290.915 29.4481 291.794 29.4481C292.445 29.4481 293.009 29.7637 293.329 30.2144L292.794 30.6765C292.55 30.3271 292.202 30.1017 291.805 30.1017C291.313 30.1017 291.053 30.4004 291.053 30.761C291.053 31.809 293.346 31.471 293.346 33.0656C293.335 33.9333 292.655 34.4799 291.805 34.4799C291.081 34.4799 290.506 34.1812 290.092 33.6572L290.639 33.1839H290.633Z"
    fill="#000091" />
  <path
    d="M297.688 29.634H298.462V32.2711C298.462 33.6684 297.672 34.4798 296.428 34.4798C295.185 34.4798 294.406 33.6684 294.406 32.2711V29.634H295.18V32.2992C295.18 33.2177 295.66 33.7417 296.439 33.7417C297.218 33.7417 297.694 33.212 297.694 32.2992V29.634H297.688Z"
    fill="#000091" />
  <path
    d="M299.893 29.6341H300.666V30.1919C301.075 29.7186 301.611 29.4538 302.29 29.4538C303.721 29.4538 304.639 30.6089 304.639 31.9725C304.639 33.336 303.721 34.4911 302.29 34.4911C301.611 34.4911 301.075 34.2207 300.666 33.753V36.5872H299.893V29.6453V29.6341ZM300.666 31.0596V32.874C301.02 33.4375 301.572 33.7417 302.202 33.7417C303.174 33.7417 303.837 32.9529 303.837 31.9668C303.837 30.9808 303.174 30.1919 302.202 30.1919C301.567 30.1919 301.014 30.5074 300.666 31.0596Z"
    fill="#000091" />
  <path
    d="M307.943 34.4799C306.401 34.4799 305.445 33.3248 305.445 31.9612C305.445 30.5976 306.335 29.4425 307.749 29.4425C308.992 29.4425 309.799 30.3046 309.799 31.471C309.799 31.6569 309.771 31.8428 309.744 31.9724H306.23C306.257 33.0937 306.954 33.7699 307.937 33.7699C308.528 33.7699 309.026 33.4938 309.324 33.0768L309.893 33.5276C309.468 34.108 308.788 34.4799 307.932 34.4799H307.943ZM306.291 31.3695H309.031C309.003 30.6821 308.512 30.113 307.749 30.113C306.987 30.113 306.451 30.5638 306.291 31.3695ZM307.407 28.8903L308.351 27.352H309.224L308.164 28.8903H307.412H307.407Z"
    fill="#000091" />
  <path
    d="M311.016 29.6341H311.789V30.2144C312.126 29.8087 312.541 29.5383 313.121 29.5383C313.264 29.5383 313.402 29.5552 313.513 29.5946V30.3609C313.375 30.3215 313.242 30.3046 313.06 30.3046C312.463 30.3046 312.071 30.6201 311.789 31.0934V34.2939H311.016V29.6284V29.6341Z"
    fill="#000091" />
  <path
    d="M314.373 27.8648C314.373 27.5661 314.616 27.3182 314.92 27.3182C315.224 27.3182 315.456 27.5661 315.456 27.8648C315.456 28.1634 315.218 28.417 314.92 28.417C314.622 28.417 314.373 28.169 314.373 27.8648ZM314.528 29.634H315.301V34.2995H314.528V29.634Z"
    fill="#000091" />
  <path
    d="M318.943 34.4799C317.401 34.4799 316.445 33.3248 316.445 31.9612C316.445 30.5976 317.335 29.4425 318.749 29.4425C319.992 29.4425 320.799 30.3046 320.799 31.4709C320.799 31.6569 320.771 31.8428 320.744 31.9724H317.23C317.257 33.0937 317.954 33.7699 318.937 33.7699C319.528 33.7699 320.026 33.4938 320.324 33.0768L320.893 33.5276C320.468 34.108 319.788 34.4799 318.932 34.4799H318.943ZM317.291 31.3695H320.031C320.003 30.6821 319.512 30.113 318.749 30.113C317.987 30.113 317.451 30.5638 317.291 31.3695Z"
    fill="#000091" />
  <path
    d="M325.131 29.634H325.905V32.2711C325.905 33.6684 325.115 34.4798 323.872 34.4798C322.629 34.4798 321.85 33.6684 321.85 32.2711V29.634H322.623V32.2992C322.623 33.2177 323.104 33.7417 323.883 33.7417C324.662 33.7417 325.137 33.212 325.137 32.2992V29.634H325.131Z"
    fill="#000091" />
  <path
    d="M327.334 29.634H328.107V30.2144C328.445 29.8087 328.859 29.5382 329.439 29.5382C329.583 29.5382 329.721 29.5551 329.831 29.5946V30.3609C329.693 30.3215 329.561 30.3046 329.378 30.3046C328.782 30.3046 328.389 30.6201 328.107 31.0934V34.2939H327.334V29.6284V29.634Z"
    fill="#000091" />
  <path
    d="M160.586 4.80215L165.255 5.27546C166.691 3.81609 168.492 2.98779 171.028 2.98779C176.912 2.98779 180.443 7.67582 180.443 13.1921C180.443 18.7085 176.912 23.3965 171.028 23.3965C168.492 23.3965 166.691 22.5738 165.255 21.1088V31.871H160.586V4.80215ZM165.255 10.2283V16.156C166.503 17.9591 168.233 18.8944 170.365 18.8944C173.525 18.8944 175.586 16.4941 175.586 13.1921C175.586 9.89024 173.525 7.48988 170.365 7.48988C168.194 7.48988 166.431 8.46467 165.255 10.2283Z"
    fill="#000091" />
  <path
    d="M182.875 17.5421C182.875 14.691 185.046 12.5554 189.019 11.8793L194.682 10.9045V10.4143C194.682 8.42522 193.212 7.15179 191.08 7.15179C189.278 7.15179 187.881 8.01389 186.886 9.40002L183.466 6.73483C185.124 4.40771 187.842 2.98215 191.229 2.98215C196.599 2.98215 199.356 6.24461 199.356 10.4086V22.6358H194.687V20.7989C193.511 22.2639 191.306 23.1993 189.135 23.1993C185.422 23.1993 182.881 21.0243 182.881 17.5365L182.875 17.5421ZM190.085 19.4184C192.218 19.4184 193.765 18.4042 194.682 16.9054V14.2402L190.267 14.9896C188.317 15.3277 187.51 16.1503 187.51 17.3167C187.51 18.5901 188.505 19.4184 190.085 19.4184Z"
    fill="#000091" />
  <path
    d="M204.316 3.73718H208.985V5.61352C210.201 4.34009 211.781 3.3653 213.875 3.3653C214.499 3.3653 215.051 3.47799 215.493 3.63012V8.31252C214.902 8.16039 214.278 8.04769 213.433 8.04769C211.151 8.04769 209.681 9.32112 208.985 10.5213V22.6358H204.316V3.73718Z"
    fill="#000091" />
  <path
    d="M231.201 16.7138L234.842 19.5649C233.113 21.892 230.395 23.3909 227.008 23.3909C220.61 23.3909 216.781 18.7028 216.781 13.1865C216.781 7.67019 220.61 2.98779 227.008 2.98779C230.389 2.98779 233.113 4.48661 234.842 6.81372L231.201 9.66486C230.317 8.35198 228.848 7.48988 226.936 7.48988C223.886 7.48988 221.638 9.89024 221.638 13.1921C221.638 16.4941 223.881 18.8944 227.008 18.8944C228.848 18.8944 230.317 18.0323 231.201 16.7194V16.7138Z"
    fill="#000091" />
  <path
    d="M256.215 13.1921C256.215 18.855 252.093 23.3965 246.065 23.3965C240.038 23.3965 235.916 18.8606 235.916 13.1921C235.916 7.52369 240.032 2.98779 246.06 2.98779C252.088 2.98779 256.209 7.52369 256.209 13.1921H256.215ZM251.358 13.1921C251.358 9.89024 249.115 7.48988 246.137 7.48988C243.159 7.48988 240.767 9.89024 240.767 13.1921C240.767 16.4941 243.049 18.8944 246.137 18.8944C249.226 18.8944 251.358 16.4546 251.358 13.1921Z"
    fill="#000091" />
  <path
    d="M272.319 3.73718H277.026V14.2402C277.026 19.903 273.788 23.3908 268.346 23.3908C262.904 23.3908 259.705 19.903 259.705 14.2402V3.73718H264.412V14.4656C264.412 17.204 265.81 18.8888 268.385 18.8888C270.959 18.8888 272.319 17.1984 272.319 14.4656V3.73718Z"
    fill="#000091" />
  <path
    d="M281.842 3.73718H286.51V5.61352C287.726 4.34009 289.306 3.3653 291.4 3.3653C292.024 3.3653 292.577 3.47799 293.019 3.63012V8.31252C292.428 8.16039 291.803 8.04769 290.958 8.04769C288.676 8.04769 287.207 9.32112 286.51 10.5213V22.6358H281.842V3.73718Z"
    fill="#000091" />
  <path
    d="M325.061 3.73718H329.768V14.2402C329.768 19.903 326.53 23.3908 321.088 23.3908C315.646 23.3908 312.447 19.903 312.447 14.2402V3.73718H317.155V14.4656C317.155 17.204 318.552 18.8888 321.127 18.8888C323.702 18.8888 325.061 17.1984 325.061 14.4656V3.73718Z"
    fill="#000091" />
  <path
    d="M334.586 3.7372H339.255V5.27546C340.691 3.81045 342.492 2.98779 345.028 2.98779C350.912 2.98779 354.443 7.67582 354.443 13.1921C354.443 18.7085 350.912 23.3965 345.028 23.3965C342.492 23.3965 340.691 22.5738 339.255 21.1088V31.871H334.586V3.7372ZM339.255 10.2283V16.156C340.503 17.9591 342.233 18.8944 344.365 18.8944C347.525 18.8944 349.586 16.4941 349.586 13.1921C349.586 9.89024 347.525 7.48988 344.365 7.48988C342.194 7.48988 340.431 8.46467 339.255 10.2283Z"
    fill="#000091" />
  <path
    d="M144.254 19.024H136.343C135.05 19.024 134 20.0946 134 21.4131C134 22.7316 135.05 23.8022 136.343 23.8022H141.917V29.4875C141.917 30.806 142.967 31.871 144.26 31.8766C144.906 31.8766 145.492 31.6118 145.912 31.1779C146.337 30.7441 146.597 30.1468 146.597 29.4875V21.4131C146.597 20.7538 146.337 20.1566 145.912 19.7227C145.486 19.2888 144.906 19.024 144.254 19.024Z"
    fill="#E1000F" />
  <path
    d="M153.584 10.9721H145.683C144.39 10.9721 143.346 12.0371 143.346 13.3556C143.346 14.6741 144.39 15.739 145.683 15.739H151.246V21.4131C151.246 22.7316 152.291 23.7966 153.584 23.7966C154.23 23.7966 154.81 23.5317 155.236 23.0979C155.661 22.664 155.921 22.0724 155.921 21.4131V13.3556C155.921 12.6963 155.661 12.099 155.236 11.6708C154.81 11.2369 154.23 10.9721 153.584 10.9721Z"
    fill="#000091" />
  <path
    d="M162.928 2.89761H155.011C153.718 2.89761 152.668 3.9682 152.668 5.28671C152.668 6.60521 153.718 7.6758 155.011 7.6758H160.585V13.3612C160.585 14.6797 161.635 15.7503 162.928 15.7503C163.574 15.7503 164.16 15.4798 164.58 15.0516C165.005 14.6177 165.265 14.0204 165.265 13.3612V5.28671C165.265 4.62745 165 4.03018 164.58 3.59631C164.154 3.16244 163.574 2.89761 162.928 2.89761Z"
    fill="#E1000F" />
</svg>