<svg width="60" height="60" xmlns="http://www.w3.org/2000/svg" xmlns:svg="http://www.w3.org/2000/svg" enable-background="new 0 0 396.9 141.7" version="1.1" xml:space="preserve">
 <style type="text/css">.st0{fill:#3D566E;}
	.st1{fill:#FF3333;}</style>
 <g class="layer">
  <title>Layer 1</title>
  <g id="svg_51">
   <path class="st1" d="m17.8,33.8l-13.7,0c-2.2,0 -4.1,1.8 -4.1,4.1c0,2.2 1.8,4.1 4.1,4.1l9.7,0l0,9.7c0,2.2 1.8,4.1 4.1,4.1c1.1,0 2.1,-0.5 2.9,-1.2c0.7,-0.7 1.2,-1.8 1.2,-2.9l0,-13.7c0,-1.1 -0.5,-2.1 -1.2,-2.9c-0.9,-0.9 -1.9,-1.3 -3,-1.3" id="svg_52"/>
   <path class="st0" d="m34.4,16.9l-13.7,0c-2.2,0 -4.1,1.8 -4.1,4.1c0,2.2 1.8,4.1 4.1,4.1l9.7,0l0,9.7c0,2.2 1.8,4.1 4.1,4.1c1.1,0 2.1,-0.5 2.9,-1.2c0.7,-0.7 1.2,-1.8 1.2,-2.9l0,-13.7c0,-1.1 -0.5,-2.1 -1.2,-2.9c-0.9,-0.8 -1.9,-1.3 -3,-1.3" id="svg_53"/>
   <path class="st1" d="m50.9,0l-13.7,0c-2.2,0 -4.1,1.8 -4.1,4.1c0,2.2 1.8,4.1 4.1,4.1l9.7,0l0,9.7c0,2.2 1.8,4.1 4.1,4.1c1.1,0 2.1,-0.5 2.9,-1.2c0.7,-0.7 1.2,-1.8 1.2,-2.9l0,-13.7c0,-1.1 -0.5,-2.1 -1.2,-2.9s-1.8,-1.3 -3,-1.3" id="svg_54"/>
  </g>
  <rect fill="null" fill-opacity="null" height="6" id="svg_55" stroke="null" stroke-dasharray="null" stroke-linecap="null" stroke-linejoin="null" stroke-opacity="null" x="66" y="32.27"/>
  <rect fill="null" fill-opacity="null" height="0" id="svg_56" stroke="null" stroke-dasharray="null" stroke-linecap="null" stroke-linejoin="null" stroke-opacity="null" width="0" x="2" y="32.27"/>
 </g>
</svg>